# AST/ASF file generated using VICON BodyLanguage
# -----------------------------------------------
:version 1.10
:name VICON
:units
  mass 1.0
  length 0.45
  angle deg
:documentation
   .ast/.asf automatically generated from VICON data using
   VICON BodyBuilder and BodyLanguage model FoxedUp or BRILLIANT.MOD
:root
   order TX TY TZ RX RY RZ
   axis XYZ
   position 0 0 0  
   orientation 0 0 0 
:bonedata
  begin
     id 1 
     name lhipjoint
     direction 0.535335 -0.74333 0.401095 
     length 2.04549 
     axis 0 0 0  XYZ
  end
  begin
     id 2 
     name lfemur
     direction 0.34202 -0.939693 0  
     length 6.95643  
     axis 0 0 20  XYZ
    dof rx ry rz
    limits (-160.0 20.0)
           (-70.0 70.0)
           (-60.0 70.0)
  end
  begin
     id 3 
     name ltibia
     direction 0.34192 -0.939729 0   
     length 5.55969   
     axis 0 0 20   XYZ
    dof rx
    limits (-10.0 170.0)
  end
  begin
     id 4 
     name lfoot
     direction 0.216943 -0.596046 0.773088   
     length 2.27918   
     axis -90 7.62852e-016 20   XYZ
    dof rx rz
    limits (-45.0 90.0)
           (-70.0 20.0)
  end
  begin
     id 5 
     name ltoes
     direction 1.53519e-011 -4.21748e-011 1   
     length 1.05562   
     axis -90 7.62852e-016 20   XYZ
    dof rx
    limits (-90.0 20.0)
  end
  begin
     id 6 
     name rhipjoint
     direction -0.576368 -0.719173 0.38806   
     length 2.1142  
     axis 0 0 0  XYZ 
  end
  begin
     id 7 
     name rfemur
     direction -0.34202 -0.939693 0   
     length 7.07928   
     axis 0 0 -20   XYZ
    dof rx ry rz
    limits (-160.0 20.0)
           (-70.0 70.0)
           (-70.0 60.0)
  end
  begin
     id 8 
     name rtibia
     direction -0.34202 -0.939693 0   
     length 5.79974   
     axis 0 0 -20   XYZ
    dof rx
    limits (-10.0 170.0)
 end
 begin
     id 9 
     name rfoot
     direction -0.189288 -0.520065 0.832888   
     length 2.42173  
     axis -90 -7.62852e-016 -20   XYZ
    dof rx rz
    limits (-45.0 90.0)
           (-20.0 70.0)
  end
  begin
     id 10 
     name rtoes
     direction -1.53574e-011 -4.21658e-011 1   
     length 1.14469   
     axis -90 -7.62852e-016 -20   XYZ
    dof rx
    limits (-90.0 20.0)
  end
  begin
     id 11 
     name lowerback
     direction -0.00135702 0.993803 0.111144   
     length 1.91308   
     axis 0 0 0   XYZ
    dof rx ry rz
    limits (-20.0 45.0)
           (-30.0 30.0)
           (-30.0 30.0)
  end
  begin
     id 12 
     name upperback
     direction -0.0056745 0.999813 0.0184631   
     length 1.9212   
     axis 0 0 0   XYZ
    dof rx ry rz
    limits (-20.0 45.0)
           (-30.0 30.0)
           (-30.0 30.0)
  end
  begin
     id 13 
     name thorax
     direction -0.00733434 0.999426 -0.0330788   
     length 1.94196   
     axis 0 0 0   XYZ
    dof rx ry rz
    limits (-20.0 45.0)
           (-30.0 30.0)
           (-30.0 30.0)
  end
  begin
     id 14 
     name lowerneck
     direction 0.0563074 0.996944 -0.0541571   
     length 2.34257   
     axis 0 0 0   XYZ
    dof rx ry rz
    limits (-20.0 45.0)
           (-30.0 30.0)
           (-30.0 30.0)
  end
  begin
     id 15 
     name upperneck
     direction -0.0544519 0.976166 -0.210085   
     length 2.32506   
     axis 0 0 0   XYZ
    dof rx ry rz
    limits (-20.0 45.0)
           (-30.0 30.0)
           (-30.0 30.0)
  end
  begin
     id 16
     name head
     direction -0.0226035 0.997615 -0.0652205  
     length 2.3648  
     axis 0 0 0   XYZ
    dof rx ry rz
    limits (-20.0 45.0)
           (-30.0 30.0)
           (-30.0 30.0)
  end
  begin
     id 17 
     name lclavicle
     direction 0.92109 0.381297 -0.0787716  
     length 4.0487  
     axis 0 0 0   XYZ
    dof ry rz
    limits (-20.0 10.0)
           (0.0 20.0)
  end
  begin
     id 18 
     name lhumerus
     direction 1 -4.48986e-011 3.56724e-027   
     length 4.94991   
     axis 180 -30 -90   XYZ
    dof rx ry rz
    limits (-60.0 90.0)
           (-90.0 90.0)
           (-90.0 90.0)
  end
  begin
     id 19
     name lradius
     direction 1 -4.48981e-011 8.62147e-027   
     length 2.7606   
     axis 180 -30 -90   XYZ
    dof rx
    limits (-10.0 170.0)
  end
  begin
     id 20
     name lwrist
     direction 1 -4.48989e-011 1.59799e-026   
     length 1.3803   
     axis -1.17785e-014 90 90   XYZ
    dof ry
    limits (-180.0 0.0)
 end
  begin
     id 21 
     name lhand
     direction 1 -4.48896e-011 3.19599e-026   
     length 0.843936   
     axis -2.03931e-014 90 90   XYZ
    dof rx rz
    limits (-90.0 90.0)
           (-45.0 45.0)
  end
  begin
     id 22 
     name lfingers
     direction 1 -4.48887e-011 6.39197e-026   
     length 0.680403   
     axis -4.07862e-014 90 90   XYZ
    dof rx
    limits (0.0 90.0)
  end
  begin
     id 23
     name lthumb
     direction 0.707107 -6.348e-011 0.707107   
     length 0.976926   
     axis -90 45 2.85299e-015   XYZ
    dof rx rz
    limits (-45.0 45.0)
           (-45.0 45.0)
  end
  begin
     id 24 
     name rclavicle
     direction -0.951104 0.307692 -0.026953   
     length 4.21801  
     axis 0 0 0   XYZ 
    dof ry rz
    limits (-10.0 20.0)
           (-20.0 0.0)
  end
  begin
     id 25 
     name rhumerus
     direction -1 -4.4896e-011 -1.8171e-018  
     length 4.32982   
     axis 180 30 90   XYZ
    dof rx ry rz
    limits (-90.0 60.0)
           (-90.0 90.0)
           (-90.0 90.0)
  end
  begin
     id 26 
     name rradius
     direction -1 -4.48959e-011 8.25165e-027   
     length 3.20057   
     axis 180 30 90   XYZ
    dof rx
    limits (-10.0 170.0)
  end
  begin
     id 27 
     name rwrist
     direction -1 -4.48997e-011 1.59799e-026   
     length 1.60029   
     axis -1.17785e-014 -90 -90   XYZ
    dof ry
    limits (-180.0 0.0)
  end
  begin
     id 28
     name rhand
     direction -1 -4.49023e-011 3.19599e-026   
     length 0.960433   
     axis -2.03931e-014 -90 -90   XYZ
    dof rx rz
    limits (-90.0 90.0)
           (-45.0 45.0)
  end
  begin
     id 29
     name rfingers
     direction -1 -4.48802e-011 6.39197e-026   
     length 0.774326   
     axis -4.07862e-014 -90 -90   XYZ
    dof rx
    limits (0.0 90.0)
  end
  begin
     id 30
     name rthumb
     direction -0.707107 -6.34876e-011 0.707107   
     length 1.11178   
     axis -90 -45 -2.85299e-015   XYZ
    dof rx rz
    limits (-45.0 45.0)
           (-45.0 45.0)
  end
:hierarchy
  begin
    root lhipjoint rhipjoint lowerback
    lhipjoint lfemur
    lfemur ltibia
    ltibia lfoot
    lfoot ltoes
    rhipjoint rfemur
    rfemur rtibia
    rtibia rfoot
    rfoot rtoes
    lowerback upperback
    upperback thorax
    thorax lowerneck lclavicle rclavicle
    lowerneck upperneck
    upperneck head
    lclavicle lhumerus
    lhumerus lradius
    lradius lwrist
    lwrist lhand lthumb
    lhand lfingers
    rclavicle rhumerus
    rhumerus rradius
    rradius rwrist
    rwrist rhand rthumb
    rhand rfingers
end

#!OML:ASF C:\KaitlinTest1\Natural Motions\Nikki\Session 2\Nikki.ASF
:FULLY-SPECIFIED
:DEGREES
316
root -13.7713 14.1335 4.17377 55.2871 82.0547 32.235
lowerback 2.94834 -2.68495 0.438678
upperback -5.49145 -3.60266 -1.45454
thorax -7.51321 -1.81782 -1.43029
lowerneck -33.6439 -28.9978 5.49794
upperneck -0.582561 -58.8805 3.29517
head 198.549 188.108 20.8528
rclavicle -3.34455e-014 -1.09332e-014
rhumerus 25.3672 32.522 -87.6066
rradius 27.9882
rwrist 1.95475
rhand -43.8785 10.8842
rfingers 7.12502
rthumb -16.7043 -18.4171
lclavicle -3.34455e-014 -1.09332e-014
lhumerus 23.4559 -4.00191 82.6212
lradius 34.2531
lwrist -0.80607
lhand -38.6815 1.22312
lfingers 7.12502
lthumb -11.6965 30.8766
rfemur -65.0944 -3.09018 17.586
rtibia 77.6526
rfoot -29.7929 -5.75871
rtoes -1.98785e-014
lfemur -60.8547 -4.52985 -21.0906
ltibia 71.2765
lfoot -20.4261 13.0647
ltoes -4.13472e-014
317
root -13.7854 14.1871 4.18009 55.1499 82.0778 31.9486
lowerback 2.67127 -2.64622 0.364531
upperback -5.51208 -3.54678 -1.36968
thorax -7.36126 -1.78315 -1.3183
lowerneck -33.6463 -29.0198 5.38525
upperneck -0.716361 -58.762 3.39256
head 198.556 187.795 20.7491
rclavicle 5.89894e-014 4.6118e-014
rhumerus 27.0904 31.3246 -87.9595
rradius 29.044
rwrist 4.5498
rhand -43.7065 9.23328
rfingers 7.12502
rthumb -16.5387 -20.0819
lclavicle 5.89894e-014 4.6118e-014
lhumerus 25.534 -4.89778 82.2003
lradius 35.5591
lwrist 0.0940907
lhand -38.6641 1.36793
lfingers 7.12502
lthumb -11.6798 31.0224
rfemur -64.9279 -3.24085 17.7702
rtibia 76.8601
rfoot -29.4113 -5.49731
rtoes 7.23576e-014
lfemur -60.6996 -4.6487 -20.9096
ltibia 70.4793
lfoot -19.9511 13.0669
ltoes 3.65764e-014
318
root -13.7938 14.255 4.18963 54.277 81.9658 30.9051
lowerback 2.39688 -2.57024 0.344263
upperback -5.68029 -3.44572 -1.47593
thorax -7.38519 -1.73359 -1.43658
lowerneck -33.2837 -29.0032 5.36283
upperneck -0.544199 -58.852 3.27594
head 198.611 187.596 20.772
rclavicle 1.25234e-014 -1.68967e-014
rhumerus 28.5515 31.2938 -88.0149
rradius 30.5021
rwrist 3.09689
rhand -43.4817 9.18762
rfingers 7.12502
rthumb -16.3222 -20.1455
lclavicle 1.25234e-014 -1.68967e-014
lhumerus 27.1745 -5.99423 81.3244
lradius 37.0568
lwrist 1.27782
lhand -38.5045 1.58819
lfingers 7.12502
lthumb -11.5258 31.2513
rfemur -64.673 -3.25997 17.9348
rtibia 75.944
rfoot -29.0272 -5.19736
rtoes 8.66701e-014
lfemur -60.4008 -4.73999 -20.6978
ltibia 69.542
lfoot -19.5141 13.2481
ltoes 1.19271e-013
319
root -13.7964 14.326 4.20174 52.9926 81.7458 29.3083
lowerback 1.94038 -2.42479 0.200992
upperback -5.9046 -3.24905 -1.49287
thorax -7.34661 -1.62602 -1.40766
lowerneck -32.9588 -29.0658 5.20217
upperneck -0.440234 -58.8779 3.16683
head 198.651 187.47 20.7511
rclavicle 2.5196e-014 1.80894e-014
rhumerus 29.6244 30.6927 -88.4023
rradius 31.6954
rwrist 3.93097
rhand -43.2015 8.44413
rfingers 7.12502
rthumb -16.0524 -20.9109
lclavicle 2.5196e-014 1.80894e-014
lhumerus 28.6143 -7.08203 80.5948
lradius 38.6007
lwrist 2.93638
lhand -38.8287 1.22113
lfingers 7.12502
lthumb -11.8385 30.8665
rfemur -64.5355 -3.14889 18.0204
rtibia 74.9748
rfoot -28.6517 -4.73764
rtoes -7.39479e-014
lfemur -60.1987 -4.58616 -20.5783
ltibia 68.5419
lfoot -19.0976 13.2759
ltoes -6.04305e-014
320
root -13.7939 14.4142 4.20948 53.172 81.7664 29.5951
lowerback 2.01307 -2.41851 0.0704996
upperback -6.08046 -3.24324 -1.43568
thorax -7.56674 -1.6118 -1.26942
lowerneck -32.5592 -29.1112 4.94964
upperneck -0.369258 -58.7175 3.0375
head 198.662 187.2 20.6959
rclavicle 3.80673e-014 1.98785e-014
rhumerus 30.692 30.9506 -88.1853
rradius 33.1899
rwrist 2.46745
rhand -43.0537 8.55647
rfingers 7.12502
rthumb -15.9101 -20.81
lclavicle 3.80673e-014 1.98785e-014
lhumerus 29.8359 -8.00668 79.8305
lradius 40.2166
lwrist 4.50012
lhand -38.8514 1.72714
lfingers 7.12502
lthumb -11.8603 31.3712
rfemur -63.7486 -3.31558 18.0719
rtibia 73.8362
rfoot -28.3087 -4.40882
rtoes -9.14409e-014
lfemur -59.4351 -4.776 -20.4853
ltibia 67.3613
lfoot -18.6217 13.3064
ltoes 7.95139e-015
321
root -13.7811 14.4973 4.21682 54.2918 81.4684 30.7106
lowerback 1.72656 -2.37941 -0.333167
upperback -6.26828 -3.20857 -1.51974
thorax -7.58315 -1.56975 -1.14458
lowerneck -32.1754 -29.1586 4.75072
upperneck -0.191091 -58.6614 2.82632
head 198.689 187.085 20.7714
rclavicle -3.51849e-014 -6.75868e-015
rhumerus 31.348 30.9825 -88.3138
rradius 34.7849
rwrist 1.50303
rhand -42.87 8.41257
rfingers 7.12502
rthumb -15.7331 -20.9679
lclavicle -3.51849e-014 -6.75868e-015
lhumerus 30.8873 -8.96217 78.9188
lradius 41.8863
lwrist 6.04372
lhand -39.1509 2.00533
lfingers 7.12502
lthumb -12.1492 31.6326
rfemur -63.1215 -3.51912 17.8054
rtibia 72.6483
rfoot -27.8836 -3.9857
rtoes -2.62396e-013
lfemur -58.7175 -4.88716 -20.7794
ltibia 66.1031
lfoot -18.1328 13.3546
ltoes -2.46493e-013
322
root -13.7649 14.5957 4.22402 53.9179 81.4505 30.4512
lowerback 1.56494 -2.35484 -0.361579
upperback -6.37017 -3.17255 -1.53788
thorax -7.59763 -1.54912 -1.15583
lowerneck -31.8896 -29.1369 4.64152
upperneck -0.0751537 -58.517 2.68077
head 198.688 186.856 20.8326
rclavicle -7.95139e-015 3.22031e-014
rhumerus 31.9195 30.8003 -88.6248
rradius 36.289
rwrist 1.50881
rhand -42.4943 8.17297
rfingers 7.12502
rthumb -15.3713 -21.2356
lclavicle -7.95139e-015 3.22031e-014
lhumerus 31.8686 -9.84241 77.8679
lradius 43.668
lwrist 7.8484
lhand -39.1411 2.19757
lfingers 7.12502
lthumb -12.1397 31.8254
rfemur -62.1359 -3.6069 17.838
rtibia 71.2682
rfoot -27.4845 -3.64466
rtoes -2.17868e-013
lfemur -57.7583 -4.97626 -20.7082
ltibia 64.7281
lfoot -17.6353 13.3014
ltoes -1.1609e-013
323
root -13.7405 14.7005 4.24415 51.4345 81.3996 28.1316
lowerback 1.45847 -2.25906 -0.475915
upperback -6.50315 -3.03756 -1.40356
thorax -7.6616 -1.46894 -0.964873
lowerneck -31.5137 -29.2207 4.41073
upperneck 0.102052 -58.5818 2.47855
head 198.73 186.99 20.8475
rclavicle 4.21423e-014 1.41137e-014
rhumerus 32.3062 31.2405 -88.5063
rradius 38.1449
rwrist -0.226981
rhand -42.2807 8.34401
rfingers 7.12502
rthumb -15.1655 -21.0803
lclavicle 4.21423e-014 1.41137e-014
lhumerus 32.6142 -10.5454 76.9403
lradius 45.3935
lwrist 9.07861
lhand -39.3271 2.40557
lfingers 7.12502
lthumb -12.3191 32.0227
rfemur -60.97 -3.31624 18.0987
rtibia 69.8157
rfoot -27.1168 -3.5421
rtoes 1.44715e-013
lfemur -56.6069 -4.6613 -20.4778
ltibia 63.3313
lfoot -17.3073 13.2168
ltoes 1.59028e-013
324
root -13.7164 14.8058 4.26239 50.8599 81.4705 27.5022
lowerback 0.966415 -2.26538 -0.555356
upperback -6.59662 -3.03221 -1.33264
thorax -7.46694 -1.45753 -0.865067
lowerneck -31.2896 -29.2682 4.27362
upperneck 0.179151 -58.6922 2.40557
head 198.775 187.1 20.7858
rclavicle 2.6339e-014 7.35503e-015
rhumerus 32.7222 31.5807 -88.4347
rradius 40.0617
rwrist -1.65995
rhand -42.1419 8.52574
rfingers 7.12502
rthumb -15.0318 -20.9086
lclavicle 2.6339e-014 7.35503e-015
lhumerus 33.3232 -11.1688 75.9462
lradius 47.2137
lwrist 10.3206
lhand -39.5984 2.32112
lfingers 7.12502
lthumb -12.5806 31.9223
rfemur -60.0338 -3.36095 18.327
rtibia 68.3036
rfoot -26.6767 -3.35602
rtoes -1.54257e-013
lfemur -55.7677 -4.52752 -20.3094
ltibia 61.9013
lfoot -16.9454 12.9385
ltoes -9.85972e-014
325
root -13.6957 14.8893 4.25498 51.4698 81.7369 27.8204
lowerback 0.322995 -2.34804 -0.253745
upperback -6.81462 -3.10733 -1.26452
thorax -7.3419 -1.50743 -0.978919
lowerneck -31.0072 -29.319 4.07691
upperneck 0.303072 -58.7069 2.25192
head 198.807 187.165 20.7985
rclavicle 3.41164e-014 3.61788e-014
rhumerus 33.0261 32.1546 -88.1074
rradius 42.0258
rwrist -3.31877
rhand -42.0074 8.6733
rfingers 7.12502
rthumb -14.9023 -20.7707
lclavicle 3.41164e-014 3.61788e-014
lhumerus 33.8282 -11.5881 75.1441
lradius 48.9657
lwrist 10.952
lhand -39.5617 2.20087
lfingers 7.12502
lthumb -12.5452 31.8042
rfemur -59.5249 -3.97274 18.6452
rtibia 66.8086
rfoot -26.1469 -2.80703
rtoes 3.49861e-014
lfemur -55.3593 -4.77186 -20.1373
ltibia 60.4654
lfoot -16.3068 12.7897
ltoes 3.18055e-015
326
root -13.6693 14.9887 4.25507 50.4247 81.9682 26.9549
lowerback 0.17716 -2.35217 0.0339233
upperback -6.93191 -3.08977 -1.15704
thorax -7.39312 -1.51125 -1.03182
lowerneck -30.6248 -29.5116 3.73137
upperneck 0.446019 -58.9771 2.09038
head 198.893 187.558 20.6906
rclavicle -3.57564e-014 2.38542e-015
rhumerus 33.1491 32.6313 -87.8121
rradius 43.9052
rwrist -4.53068
rhand -41.8699 8.70077
rfingers 7.12502
rthumb -14.7698 -20.753
lclavicle -3.57564e-014 2.38542e-015
lhumerus 34.1416 -12.1007 74.324
lradius 50.8144
lwrist 11.5849
lhand -39.5028 2.44829
lfingers 7.12502
lthumb -12.4885 32.0551
rfemur -58.3466 -4.35416 19.0268
rtibia 65.2171
rfoot -25.6484 -2.28501
rtoes -1.04958e-013
lfemur -54.2569 -4.75473 -19.9214
ltibia 58.9244
lfoot -15.8089 12.5311
ltoes -3.81667e-014
327
root -13.6382 15.0949 4.26202 49.9295 82.0345 26.2894
lowerback -0.406949 -2.32424 0.086928
upperback -7.11621 -3.03006 -1.07246
thorax -7.24945 -1.47831 -0.997722
lowerneck -30.3489 -29.5877 3.48867
upperneck 0.533497 -58.9471 1.95063
head 198.914 187.586 20.6803
rclavicle 3.33958e-014 2.56432e-014
rhumerus 33.2061 33.1553 -87.4617
rradius 45.8367
rwrist -6.22077
rhand -41.6012 9.0168
rfingers 7.12502
rthumb -14.511 -20.4557
lclavicle 3.33958e-014 2.56432e-014
lhumerus 34.4144 -12.3149 73.753
lradius 52.4504
lwrist 11.0517
lhand -38.9007 2.85056
lfingers 7.12502
lthumb -11.9079 32.4919
rfemur -57.5228 -4.7319 19.312
rtibia 63.5812
rfoot -25.1478 -1.61076
rtoes 2.46493e-014
lfemur -53.4797 -4.56878 -19.8361
ltibia 57.3038
lfoot -15.2607 12.1736
ltoes 3.18055e-015
